<svg xmlns="http://www.w3.org/2000/svg" viewBox="0 0 128 128"><path fill="#1F9055" d="M12 22h104c6.627 0 12 5.373 12 12v60c0 6.627-5.373 12-12 12H12c-6.627 0-12-5.373-12-12V34c0-6.627 5.373-12 12-12z"/><path fill="#47C67F" d="M12 22h104c6.627 0 12 5.373 12 12v2L64 78 0 36v-2c0-6.627 5.373-12 12-12z"/><path fill="#fff" d="M4 30.5l60 39 60-39-4-5.5-56 36.5L8 25z" opacity=".9"/><circle cx="64" cy="64" r="20" fill="#fff" opacity=".1"/><path fill="#fff" d="M60 56h8v16h-8zm-4 20h16v4H56z" opacity=".85"/></svg>
