<svg xmlns="http://www.w3.org/2000/svg" viewBox="0 0 64 64">
  <title>Apache HTTP Server</title>
  <!-- Apache feather simplified -->
  <path d="M32 4 C 18 10 10 24 12 40 C 14 52 22 58 32 58 C 42 58 50 52 52 40 C 54 24 46 10 32 4 Z"
        fill="#d22128"/>
  <path d="M32 10 C 24 14 18 22 18 32 C 18 42 24 48 32 50 C 28 42 26 34 28 26 C 30 18 32 14 32 10 Z"
        fill="#fff" opacity="0.95"/>
  <path d="M36 14 C 40 20 42 28 40 36 C 38 44 34 48 32 50 C 38 48 44 42 46 34 C 48 24 44 16 36 14 Z"
        fill="#fff" opacity="0.6"/>
</svg>
